<svg xmlns="http://www.w3.org/2000/svg" xmlns:xlink="http://www.w3.org/1999/xlink" version="1.1" x="0px" y="0px" viewBox="0 0 100 125" enable-background="new 0 0 100 100" xml:space="preserve"><circle cx="42.018" cy="32.156" r="19.318"/><path d="M42.019,59.258C10.964,59.258,5,74.568,5,79.479c0,4.904,4.046,7.685,7.825,7.685h29.194h29.193  c3.777,0,7.824-2.779,7.824-7.685C79.036,74.568,73.072,59.258,42.019,59.258z"/><path d="M92.049,44.464h-8.945V35.52c0-1.632-1.319-2.951-2.949-2.951c-1.631,0-2.951,1.319-2.951,2.951v8.944h-8.944  c-1.63,0-2.95,1.319-2.95,2.95c0,1.63,1.32,2.951,2.95,2.951h8.944v8.943c0,1.629,1.32,2.951,2.951,2.951  c1.63,0,2.949-1.322,2.949-2.951v-8.943h8.945c1.631,0,2.951-1.321,2.951-2.951C95,45.783,93.68,44.464,92.049,44.464z"/><text x="0" y="115" fill="#000000" font-size="5px" font-weight="bold" font-family="'Helvetica Neue', Helvetica, Arial-Unicode, Arial, Sans-serif">Created by David</text><text x="0" y="120" fill="#000000" font-size="5px" font-weight="bold" font-family="'Helvetica Neue', Helvetica, Arial-Unicode, Arial, Sans-serif">from the Noun Project</text></svg>