<svg xmlns="http://www.w3.org/2000/svg" xmlns:xlink="http://www.w3.org/1999/xlink" version="1.2" baseProfile="tiny" x="0px" y="0px" viewBox="0 0 100 125" xml:space="preserve"><path fill="#000000" d="M8.75,80c0,3.102,2.523,5.625,5.625,5.625V87.5c0,4.142,3.358,7.5,7.5,7.5H83.75c4.142,0,7.5-3.358,7.5-7.5  v-75c0-4.142-3.358-7.5-7.5-7.5H21.875c-4.142,0-7.5,3.358-7.5,7.5v1.875c-3.102,0-5.625,2.523-5.625,5.625s2.523,5.625,5.625,5.625  v3.75c-3.102,0-5.625,2.523-5.625,5.625s2.523,5.625,5.625,5.625v3.75c-3.102,0-5.625,2.523-5.625,5.625s2.523,5.625,5.625,5.625  v3.75c-3.102,0-5.625,2.523-5.625,5.625s2.523,5.625,5.625,5.625v3.75C11.273,74.375,8.75,76.898,8.75,80z M20,12.5  c0-1.034,0.841-1.875,1.875-1.875H83.75c1.034,0,1.875,0.841,1.875,1.875v75c0,1.034-0.841,1.875-1.875,1.875H21.875  C20.841,89.375,20,88.534,20,87.5v-1.875c3.102,0,5.625-2.523,5.625-5.625S23.102,74.375,20,74.375v-3.75  c3.102,0,5.625-2.523,5.625-5.625S23.102,59.375,20,59.375v-3.75c3.102,0,5.625-2.523,5.625-5.625S23.102,44.375,20,44.375v-3.75  c3.102,0,5.625-2.523,5.625-5.625S23.102,29.375,20,29.375v-3.75c3.102,0,5.625-2.523,5.625-5.625S23.102,14.375,20,14.375V12.5z   M12.5,20c0-1.034,0.841-1.875,1.875-1.875H20c1.034,0,1.875,0.841,1.875,1.875S21.034,21.875,20,21.875h-5.625  C13.341,21.875,12.5,21.034,12.5,20z M12.5,35c0-1.034,0.841-1.875,1.875-1.875H20c1.034,0,1.875,0.841,1.875,1.875  S21.034,36.875,20,36.875h-5.625C13.341,36.875,12.5,36.034,12.5,35z M12.5,50c0-1.034,0.841-1.875,1.875-1.875H20  c1.034,0,1.875,0.841,1.875,1.875S21.034,51.875,20,51.875h-5.625C13.341,51.875,12.5,51.034,12.5,50z M12.5,65  c0-1.034,0.841-1.875,1.875-1.875H20c1.034,0,1.875,0.841,1.875,1.875S21.034,66.875,20,66.875h-5.625  C13.341,66.875,12.5,66.034,12.5,65z M20,78.125c1.034,0,1.875,0.841,1.875,1.875S21.034,81.875,20,81.875h-5.625  c-1.034,0-1.875-0.841-1.875-1.875s0.841-1.875,1.875-1.875H20z"/><rect x="33.125" y="70.625" fill="#000000" width="45" height="3.75"/><rect x="33.125" y="59.375" fill="#000000" width="45" height="3.75"/><rect x="33.125" y="48.125" fill="#000000" width="45" height="3.75"/><rect x="33.125" y="36.875" fill="#000000" width="45" height="3.75"/><rect x="33.125" y="25.625" fill="#000000" width="45" height="3.75"/><text x="0" y="115" fill="#000000" font-size="5px" font-weight="bold" font-family="'Helvetica Neue', Helvetica, Arial-Unicode, Arial, Sans-serif">Created by Arthur Shlain</text><text x="0" y="120" fill="#000000" font-size="5px" font-weight="bold" font-family="'Helvetica Neue', Helvetica, Arial-Unicode, Arial, Sans-serif">from the Noun Project</text></svg>